<mxfile host="app.diagrams.net" modified="2024-06-25T12:41:56.391Z" agent="Mozilla/5.0 (Windows NT 10.0; Win64; x64) AppleWebKit/537.36 (KHTML, like Gecko) Chrome/126.0.0.0 Safari/537.36 Edg/126.0.0.0" etag="4Z6mf4syeJMja_nv_mDn" version="24.5.5" type="device" pages="2">
  <diagram id="Dpav7CHE1rxV_vT-ojmE" name="Page-1">
    <mxGraphModel dx="766" dy="491" grid="1" gridSize="10" guides="1" tooltips="1" connect="1" arrows="1" fold="1" page="1" pageScale="1" pageWidth="850" pageHeight="1100" math="1" shadow="0">
      <root>
        <mxCell id="0" />
        <mxCell id="1" parent="0" />
        <mxCell id="_PVGUrJauaZoBftJVT4O-1" value="`S1`" style="whiteSpace=wrap;html=1;fillColor=#dae8fc;strokeColor=#6c8ebf;" parent="1" vertex="1">
          <mxGeometry x="248" y="164" width="40" height="40" as="geometry" />
        </mxCell>
        <mxCell id="_PVGUrJauaZoBftJVT4O-2" value="`E1`" style="whiteSpace=wrap;html=1;fillColor=#fff2cc;strokeColor=#d6b656;" parent="1" vertex="1">
          <mxGeometry x="419" y="164" width="40" height="40" as="geometry" />
        </mxCell>
        <mxCell id="_PVGUrJauaZoBftJVT4O-3" value="`In1`" style="whiteSpace=wrap;html=1;fillColor=#f8cecc;strokeColor=#b85450;" parent="1" vertex="1">
          <mxGeometry x="633" y="238" width="40" height="40" as="geometry" />
        </mxCell>
        <mxCell id="_PVGUrJauaZoBftJVT4O-4" value="`It1`" style="whiteSpace=wrap;html=1;fillColor=#ffe6cc;strokeColor=#d79b00;" parent="1" vertex="1">
          <mxGeometry x="689" y="103" width="40" height="40" as="geometry" />
        </mxCell>
        <mxCell id="_PVGUrJauaZoBftJVT4O-5" value="`Tr1`" style="whiteSpace=wrap;html=1;fillColor=#d5e8d4;strokeColor=#82b366;" parent="1" vertex="1">
          <mxGeometry x="813" y="110" width="40" height="40" as="geometry" />
        </mxCell>
        <mxCell id="_PVGUrJauaZoBftJVT4O-6" value="`R1`" style="whiteSpace=wrap;html=1;fillColor=#e1d5e7;strokeColor=#9673a6;" parent="1" vertex="1">
          <mxGeometry x="952" y="170" width="40" height="40" as="geometry" />
        </mxCell>
        <mxCell id="_PVGUrJauaZoBftJVT4O-9" value="`S2`" style="whiteSpace=wrap;html=1;fillColor=#dae8fc;strokeColor=#6c8ebf;" parent="1" vertex="1">
          <mxGeometry x="249" y="489" width="40" height="40" as="geometry" />
        </mxCell>
        <mxCell id="_PVGUrJauaZoBftJVT4O-10" value="`E2`" style="whiteSpace=wrap;html=1;fillColor=#fff2cc;strokeColor=#d6b656;" parent="1" vertex="1">
          <mxGeometry x="419" y="489" width="40" height="40" as="geometry" />
        </mxCell>
        <mxCell id="_PVGUrJauaZoBftJVT4O-11" value="`In2`" style="whiteSpace=wrap;html=1;fillColor=#f8cecc;strokeColor=#b85450;" parent="1" vertex="1">
          <mxGeometry x="630" y="573" width="40" height="40" as="geometry" />
        </mxCell>
        <mxCell id="_PVGUrJauaZoBftJVT4O-12" value="`It2`" style="whiteSpace=wrap;html=1;fillColor=#ffe6cc;strokeColor=#d79b00;" parent="1" vertex="1">
          <mxGeometry x="692" y="424" width="40" height="40" as="geometry" />
        </mxCell>
        <mxCell id="_PVGUrJauaZoBftJVT4O-13" value="`Tr2`" style="whiteSpace=wrap;html=1;fillColor=#d5e8d4;strokeColor=#82b366;" parent="1" vertex="1">
          <mxGeometry x="811" y="436" width="40" height="40" as="geometry" />
        </mxCell>
        <mxCell id="_PVGUrJauaZoBftJVT4O-14" value="`VA2`" style="whiteSpace=wrap;html=1;fillColor=#bac8d3;strokeColor=#23445d;" parent="1" vertex="1">
          <mxGeometry x="353" y="592" width="40" height="40" as="geometry" />
        </mxCell>
        <mxCell id="_PVGUrJauaZoBftJVT4O-15" value="`R2`" style="whiteSpace=wrap;html=1;fillColor=#e1d5e7;strokeColor=#9673a6;" parent="1" vertex="1">
          <mxGeometry x="958" y="530" width="40" height="40" as="geometry" />
        </mxCell>
        <mxCell id="_PVGUrJauaZoBftJVT4O-19" value="`S3`" style="whiteSpace=wrap;html=1;fillColor=#dae8fc;strokeColor=#6c8ebf;" parent="1" vertex="1">
          <mxGeometry x="249" y="758" width="40" height="40" as="geometry" />
        </mxCell>
        <mxCell id="_PVGUrJauaZoBftJVT4O-20" value="`E3`" style="whiteSpace=wrap;html=1;fillColor=#fff2cc;strokeColor=#d6b656;" parent="1" vertex="1">
          <mxGeometry x="419" y="758" width="40" height="40" as="geometry" />
        </mxCell>
        <mxCell id="_PVGUrJauaZoBftJVT4O-21" value="`In3`" style="whiteSpace=wrap;html=1;fillColor=#f8cecc;strokeColor=#b85450;" parent="1" vertex="1">
          <mxGeometry x="633" y="832" width="40" height="40" as="geometry" />
        </mxCell>
        <mxCell id="_PVGUrJauaZoBftJVT4O-22" value="`It3`" style="whiteSpace=wrap;html=1;fillColor=#ffe6cc;strokeColor=#d79b00;" parent="1" vertex="1">
          <mxGeometry x="694" y="695" width="40" height="40" as="geometry" />
        </mxCell>
        <mxCell id="_PVGUrJauaZoBftJVT4O-23" value="`Tr3`" style="whiteSpace=wrap;html=1;fillColor=#d5e8d4;strokeColor=#82b366;" parent="1" vertex="1">
          <mxGeometry x="815" y="706" width="40" height="40" as="geometry" />
        </mxCell>
        <mxCell id="_PVGUrJauaZoBftJVT4O-24" value="`VA3`" style="whiteSpace=wrap;html=1;fillColor=#bac8d3;strokeColor=#23445d;" parent="1" vertex="1">
          <mxGeometry x="346" y="855" width="40" height="40" as="geometry" />
        </mxCell>
        <mxCell id="_PVGUrJauaZoBftJVT4O-25" value="`VB3`" style="whiteSpace=wrap;html=1;fillColor=#d0cee2;strokeColor=#56517e;" parent="1" vertex="1">
          <mxGeometry x="520" y="855" width="40" height="40" as="geometry" />
        </mxCell>
        <mxCell id="_PVGUrJauaZoBftJVT4O-26" value="`R3`" style="whiteSpace=wrap;html=1;fillColor=#e1d5e7;strokeColor=#9673a6;" parent="1" vertex="1">
          <mxGeometry x="963" y="789" width="40" height="40" as="geometry" />
        </mxCell>
        <mxCell id="QGI5SdNPsL6WamnX0T07-1" style="rounded=0;orthogonalLoop=1;jettySize=auto;html=1;" parent="1" source="_PVGUrJauaZoBftJVT4O-1" target="_PVGUrJauaZoBftJVT4O-2" edge="1">
          <mxGeometry relative="1" as="geometry" />
        </mxCell>
        <mxCell id="QGI5SdNPsL6WamnX0T07-3" style="rounded=0;orthogonalLoop=1;jettySize=auto;html=1;" parent="1" source="_PVGUrJauaZoBftJVT4O-1" target="_PVGUrJauaZoBftJVT4O-9" edge="1">
          <mxGeometry relative="1" as="geometry" />
        </mxCell>
        <mxCell id="QGI5SdNPsL6WamnX0T07-4" style="rounded=0;orthogonalLoop=1;jettySize=auto;html=1;" parent="1" source="_PVGUrJauaZoBftJVT4O-1" target="_PVGUrJauaZoBftJVT4O-14" edge="1">
          <mxGeometry relative="1" as="geometry" />
        </mxCell>
        <mxCell id="QGI5SdNPsL6WamnX0T07-6" style="rounded=0;orthogonalLoop=1;jettySize=auto;html=1;" parent="1" source="_PVGUrJauaZoBftJVT4O-2" target="_PVGUrJauaZoBftJVT4O-3" edge="1">
          <mxGeometry relative="1" as="geometry" />
        </mxCell>
        <mxCell id="QGI5SdNPsL6WamnX0T07-7" style="rounded=0;orthogonalLoop=1;jettySize=auto;html=1;" parent="1" source="_PVGUrJauaZoBftJVT4O-2" target="_PVGUrJauaZoBftJVT4O-4" edge="1">
          <mxGeometry relative="1" as="geometry" />
        </mxCell>
        <mxCell id="QGI5SdNPsL6WamnX0T07-8" style="rounded=0;orthogonalLoop=1;jettySize=auto;html=1;" parent="1" source="_PVGUrJauaZoBftJVT4O-2" target="_PVGUrJauaZoBftJVT4O-10" edge="1">
          <mxGeometry relative="1" as="geometry" />
        </mxCell>
        <mxCell id="QGI5SdNPsL6WamnX0T07-9" style="rounded=0;orthogonalLoop=1;jettySize=auto;html=1;" parent="1" source="_PVGUrJauaZoBftJVT4O-3" target="_PVGUrJauaZoBftJVT4O-6" edge="1">
          <mxGeometry relative="1" as="geometry" />
        </mxCell>
        <mxCell id="QGI5SdNPsL6WamnX0T07-10" style="rounded=0;orthogonalLoop=1;jettySize=auto;html=1;" parent="1" source="_PVGUrJauaZoBftJVT4O-3" target="_PVGUrJauaZoBftJVT4O-11" edge="1">
          <mxGeometry relative="1" as="geometry" />
        </mxCell>
        <mxCell id="QGI5SdNPsL6WamnX0T07-11" style="rounded=0;orthogonalLoop=1;jettySize=auto;html=1;" parent="1" source="_PVGUrJauaZoBftJVT4O-4" target="_PVGUrJauaZoBftJVT4O-5" edge="1">
          <mxGeometry relative="1" as="geometry" />
        </mxCell>
        <mxCell id="QGI5SdNPsL6WamnX0T07-13" style="rounded=0;orthogonalLoop=1;jettySize=auto;html=1;" parent="1" source="_PVGUrJauaZoBftJVT4O-4" target="_PVGUrJauaZoBftJVT4O-12" edge="1">
          <mxGeometry relative="1" as="geometry" />
        </mxCell>
        <mxCell id="QGI5SdNPsL6WamnX0T07-14" style="rounded=0;orthogonalLoop=1;jettySize=auto;html=1;" parent="1" source="_PVGUrJauaZoBftJVT4O-5" target="_PVGUrJauaZoBftJVT4O-6" edge="1">
          <mxGeometry relative="1" as="geometry" />
        </mxCell>
        <mxCell id="QGI5SdNPsL6WamnX0T07-15" style="rounded=0;orthogonalLoop=1;jettySize=auto;html=1;" parent="1" source="_PVGUrJauaZoBftJVT4O-5" target="_PVGUrJauaZoBftJVT4O-13" edge="1">
          <mxGeometry relative="1" as="geometry" />
        </mxCell>
        <mxCell id="QGI5SdNPsL6WamnX0T07-16" style="rounded=0;orthogonalLoop=1;jettySize=auto;html=1;" parent="1" source="_PVGUrJauaZoBftJVT4O-6" target="_PVGUrJauaZoBftJVT4O-14" edge="1">
          <mxGeometry relative="1" as="geometry" />
        </mxCell>
        <mxCell id="QGI5SdNPsL6WamnX0T07-17" style="rounded=0;orthogonalLoop=1;jettySize=auto;html=1;" parent="1" source="_PVGUrJauaZoBftJVT4O-6" target="_PVGUrJauaZoBftJVT4O-15" edge="1">
          <mxGeometry relative="1" as="geometry" />
        </mxCell>
        <mxCell id="QGI5SdNPsL6WamnX0T07-19" style="rounded=0;orthogonalLoop=1;jettySize=auto;html=1;" parent="1" source="_PVGUrJauaZoBftJVT4O-9" target="_PVGUrJauaZoBftJVT4O-10" edge="1">
          <mxGeometry relative="1" as="geometry" />
        </mxCell>
        <mxCell id="QGI5SdNPsL6WamnX0T07-21" style="rounded=0;orthogonalLoop=1;jettySize=auto;html=1;" parent="1" source="_PVGUrJauaZoBftJVT4O-9" target="_PVGUrJauaZoBftJVT4O-19" edge="1">
          <mxGeometry relative="1" as="geometry" />
        </mxCell>
        <mxCell id="QGI5SdNPsL6WamnX0T07-22" style="rounded=0;orthogonalLoop=1;jettySize=auto;html=1;" parent="1" source="_PVGUrJauaZoBftJVT4O-10" target="_PVGUrJauaZoBftJVT4O-11" edge="1">
          <mxGeometry relative="1" as="geometry" />
        </mxCell>
        <mxCell id="QGI5SdNPsL6WamnX0T07-23" style="rounded=0;orthogonalLoop=1;jettySize=auto;html=1;" parent="1" source="_PVGUrJauaZoBftJVT4O-10" target="_PVGUrJauaZoBftJVT4O-12" edge="1">
          <mxGeometry relative="1" as="geometry" />
        </mxCell>
        <mxCell id="QGI5SdNPsL6WamnX0T07-24" style="rounded=0;orthogonalLoop=1;jettySize=auto;html=1;" parent="1" source="_PVGUrJauaZoBftJVT4O-10" target="_PVGUrJauaZoBftJVT4O-20" edge="1">
          <mxGeometry relative="1" as="geometry" />
        </mxCell>
        <mxCell id="QGI5SdNPsL6WamnX0T07-25" style="rounded=0;orthogonalLoop=1;jettySize=auto;html=1;" parent="1" source="_PVGUrJauaZoBftJVT4O-11" target="_PVGUrJauaZoBftJVT4O-15" edge="1">
          <mxGeometry relative="1" as="geometry" />
        </mxCell>
        <mxCell id="QGI5SdNPsL6WamnX0T07-26" style="rounded=0;orthogonalLoop=1;jettySize=auto;html=1;" parent="1" source="_PVGUrJauaZoBftJVT4O-11" target="_PVGUrJauaZoBftJVT4O-21" edge="1">
          <mxGeometry relative="1" as="geometry" />
        </mxCell>
        <mxCell id="QGI5SdNPsL6WamnX0T07-27" style="rounded=0;orthogonalLoop=1;jettySize=auto;html=1;" parent="1" source="_PVGUrJauaZoBftJVT4O-12" target="_PVGUrJauaZoBftJVT4O-13" edge="1">
          <mxGeometry relative="1" as="geometry" />
        </mxCell>
        <mxCell id="QGI5SdNPsL6WamnX0T07-29" style="rounded=0;orthogonalLoop=1;jettySize=auto;html=1;" parent="1" source="_PVGUrJauaZoBftJVT4O-12" target="_PVGUrJauaZoBftJVT4O-22" edge="1">
          <mxGeometry relative="1" as="geometry" />
        </mxCell>
        <mxCell id="QGI5SdNPsL6WamnX0T07-30" style="rounded=0;orthogonalLoop=1;jettySize=auto;html=1;" parent="1" source="_PVGUrJauaZoBftJVT4O-13" target="_PVGUrJauaZoBftJVT4O-15" edge="1">
          <mxGeometry relative="1" as="geometry" />
        </mxCell>
        <mxCell id="QGI5SdNPsL6WamnX0T07-31" style="rounded=0;orthogonalLoop=1;jettySize=auto;html=1;" parent="1" source="_PVGUrJauaZoBftJVT4O-13" target="_PVGUrJauaZoBftJVT4O-23" edge="1">
          <mxGeometry relative="1" as="geometry" />
        </mxCell>
        <mxCell id="QGI5SdNPsL6WamnX0T07-32" style="rounded=0;orthogonalLoop=1;jettySize=auto;html=1;" parent="1" source="_PVGUrJauaZoBftJVT4O-14" target="_PVGUrJauaZoBftJVT4O-10" edge="1">
          <mxGeometry relative="1" as="geometry" />
        </mxCell>
        <mxCell id="QGI5SdNPsL6WamnX0T07-34" style="rounded=0;orthogonalLoop=1;jettySize=auto;html=1;" parent="1" source="_PVGUrJauaZoBftJVT4O-14" target="_PVGUrJauaZoBftJVT4O-24" edge="1">
          <mxGeometry relative="1" as="geometry" />
        </mxCell>
        <mxCell id="QGI5SdNPsL6WamnX0T07-35" style="rounded=0;orthogonalLoop=1;jettySize=auto;html=1;" parent="1" source="_PVGUrJauaZoBftJVT4O-14" target="_PVGUrJauaZoBftJVT4O-25" edge="1">
          <mxGeometry relative="1" as="geometry" />
        </mxCell>
        <mxCell id="QGI5SdNPsL6WamnX0T07-37" style="rounded=0;orthogonalLoop=1;jettySize=auto;html=1;" parent="1" source="_PVGUrJauaZoBftJVT4O-15" target="_PVGUrJauaZoBftJVT4O-26" edge="1">
          <mxGeometry relative="1" as="geometry" />
        </mxCell>
        <mxCell id="QGI5SdNPsL6WamnX0T07-38" style="rounded=0;orthogonalLoop=1;jettySize=auto;html=1;" parent="1" source="_PVGUrJauaZoBftJVT4O-19" target="_PVGUrJauaZoBftJVT4O-20" edge="1">
          <mxGeometry relative="1" as="geometry" />
        </mxCell>
        <mxCell id="QGI5SdNPsL6WamnX0T07-40" style="rounded=0;orthogonalLoop=1;jettySize=auto;html=1;" parent="1" source="_PVGUrJauaZoBftJVT4O-20" target="_PVGUrJauaZoBftJVT4O-21" edge="1">
          <mxGeometry relative="1" as="geometry" />
        </mxCell>
        <mxCell id="QGI5SdNPsL6WamnX0T07-41" style="rounded=0;orthogonalLoop=1;jettySize=auto;html=1;" parent="1" source="_PVGUrJauaZoBftJVT4O-20" target="_PVGUrJauaZoBftJVT4O-22" edge="1">
          <mxGeometry relative="1" as="geometry" />
        </mxCell>
        <mxCell id="QGI5SdNPsL6WamnX0T07-42" style="rounded=0;orthogonalLoop=1;jettySize=auto;html=1;" parent="1" source="_PVGUrJauaZoBftJVT4O-21" target="_PVGUrJauaZoBftJVT4O-26" edge="1">
          <mxGeometry relative="1" as="geometry" />
        </mxCell>
        <mxCell id="QGI5SdNPsL6WamnX0T07-43" style="rounded=0;orthogonalLoop=1;jettySize=auto;html=1;" parent="1" source="_PVGUrJauaZoBftJVT4O-22" target="_PVGUrJauaZoBftJVT4O-23" edge="1">
          <mxGeometry relative="1" as="geometry" />
        </mxCell>
        <mxCell id="QGI5SdNPsL6WamnX0T07-45" style="rounded=0;orthogonalLoop=1;jettySize=auto;html=1;" parent="1" source="_PVGUrJauaZoBftJVT4O-23" target="_PVGUrJauaZoBftJVT4O-26" edge="1">
          <mxGeometry relative="1" as="geometry" />
        </mxCell>
        <mxCell id="QGI5SdNPsL6WamnX0T07-46" style="rounded=0;orthogonalLoop=1;jettySize=auto;html=1;" parent="1" source="_PVGUrJauaZoBftJVT4O-24" target="_PVGUrJauaZoBftJVT4O-20" edge="1">
          <mxGeometry relative="1" as="geometry" />
        </mxCell>
        <mxCell id="rcEUrJyDU5K6wRp0mU6U-1" value="Counters" parent="0" />
        <mxCell id="rcEUrJyDU5K6wRp0mU6U-2" value="`CInc1`" style="whiteSpace=wrap;html=1;fillColor=#f5f5f5;fontColor=#333333;strokeColor=#666666;" vertex="1" parent="rcEUrJyDU5K6wRp0mU6U-1">
          <mxGeometry x="55" y="164" width="40" height="40" as="geometry" />
        </mxCell>
        <mxCell id="rcEUrJyDU5K6wRp0mU6U-3" value="`CTr1`" style="whiteSpace=wrap;html=1;fillColor=#f5f5f5;fontColor=#333333;strokeColor=#666666;" vertex="1" parent="rcEUrJyDU5K6wRp0mU6U-1">
          <mxGeometry x="739" y="164" width="40" height="40" as="geometry" />
        </mxCell>
        <mxCell id="rcEUrJyDU5K6wRp0mU6U-4" value="`CInc2`" style="whiteSpace=wrap;html=1;fillColor=#f5f5f5;fontColor=#333333;strokeColor=#666666;" vertex="1" parent="rcEUrJyDU5K6wRp0mU6U-1">
          <mxGeometry x="50" y="682" width="40" height="40" as="geometry" />
        </mxCell>
        <mxCell id="rcEUrJyDU5K6wRp0mU6U-5" value="`CTr2`" style="whiteSpace=wrap;html=1;fillColor=#f5f5f5;fontColor=#333333;strokeColor=#666666;" vertex="1" parent="rcEUrJyDU5K6wRp0mU6U-1">
          <mxGeometry x="736" y="481" width="40" height="40" as="geometry" />
        </mxCell>
        <mxCell id="rcEUrJyDU5K6wRp0mU6U-6" value="`CVax2`" style="whiteSpace=wrap;html=1;fillColor=#f5f5f5;fontColor=#333333;strokeColor=#666666;" vertex="1" parent="rcEUrJyDU5K6wRp0mU6U-1">
          <mxGeometry x="800" y="40" width="40" height="40" as="geometry" />
        </mxCell>
        <mxCell id="rcEUrJyDU5K6wRp0mU6U-7" value="`CInc3`" style="whiteSpace=wrap;html=1;fillColor=#f5f5f5;fontColor=#333333;strokeColor=#666666;" vertex="1" parent="rcEUrJyDU5K6wRp0mU6U-1">
          <mxGeometry x="55" y="850" width="40" height="40" as="geometry" />
        </mxCell>
        <mxCell id="rcEUrJyDU5K6wRp0mU6U-8" value="`CTr3`" style="whiteSpace=wrap;html=1;fillColor=#f5f5f5;fontColor=#333333;strokeColor=#666666;" vertex="1" parent="rcEUrJyDU5K6wRp0mU6U-1">
          <mxGeometry x="728" y="759" width="40" height="40" as="geometry" />
        </mxCell>
        <mxCell id="rcEUrJyDU5K6wRp0mU6U-9" value="`CVax3`" style="whiteSpace=wrap;html=1;fillColor=#f5f5f5;fontColor=#333333;strokeColor=#666666;" vertex="1" parent="rcEUrJyDU5K6wRp0mU6U-1">
          <mxGeometry x="50" y="592" width="40" height="40" as="geometry" />
        </mxCell>
        <mxCell id="rcEUrJyDU5K6wRp0mU6U-10" style="rounded=0;orthogonalLoop=1;jettySize=auto;html=1;dashed=1;" edge="1" parent="rcEUrJyDU5K6wRp0mU6U-1" target="rcEUrJyDU5K6wRp0mU6U-2">
          <mxGeometry relative="1" as="geometry">
            <mxPoint x="248" y="184" as="sourcePoint" />
          </mxGeometry>
        </mxCell>
        <mxCell id="rcEUrJyDU5K6wRp0mU6U-11" style="rounded=0;orthogonalLoop=1;jettySize=auto;html=1;dashed=1;" edge="1" parent="rcEUrJyDU5K6wRp0mU6U-1" target="rcEUrJyDU5K6wRp0mU6U-6">
          <mxGeometry relative="1" as="geometry">
            <mxPoint x="288" y="180" as="sourcePoint" />
          </mxGeometry>
        </mxCell>
        <mxCell id="rcEUrJyDU5K6wRp0mU6U-12" style="rounded=0;orthogonalLoop=1;jettySize=auto;html=1;dashed=1;" edge="1" parent="rcEUrJyDU5K6wRp0mU6U-1" target="rcEUrJyDU5K6wRp0mU6U-3">
          <mxGeometry relative="1" as="geometry">
            <mxPoint x="725" y="143" as="sourcePoint" />
          </mxGeometry>
        </mxCell>
        <mxCell id="rcEUrJyDU5K6wRp0mU6U-13" style="rounded=0;orthogonalLoop=1;jettySize=auto;html=1;dashed=1;" edge="1" parent="rcEUrJyDU5K6wRp0mU6U-1" target="rcEUrJyDU5K6wRp0mU6U-6">
          <mxGeometry relative="1" as="geometry">
            <mxPoint x="952" y="173" as="sourcePoint" />
          </mxGeometry>
        </mxCell>
        <mxCell id="rcEUrJyDU5K6wRp0mU6U-14" style="rounded=0;orthogonalLoop=1;jettySize=auto;html=1;dashed=1;" edge="1" parent="rcEUrJyDU5K6wRp0mU6U-1" target="rcEUrJyDU5K6wRp0mU6U-4">
          <mxGeometry relative="1" as="geometry">
            <mxPoint x="249" y="528" as="sourcePoint" />
          </mxGeometry>
        </mxCell>
        <mxCell id="rcEUrJyDU5K6wRp0mU6U-15" style="rounded=0;orthogonalLoop=1;jettySize=auto;html=1;dashed=1;" edge="1" parent="rcEUrJyDU5K6wRp0mU6U-1" target="rcEUrJyDU5K6wRp0mU6U-5">
          <mxGeometry relative="1" as="geometry">
            <mxPoint x="727" y="464" as="sourcePoint" />
          </mxGeometry>
        </mxCell>
        <mxCell id="rcEUrJyDU5K6wRp0mU6U-16" style="rounded=0;orthogonalLoop=1;jettySize=auto;html=1;dashed=1;" edge="1" parent="rcEUrJyDU5K6wRp0mU6U-1" target="rcEUrJyDU5K6wRp0mU6U-4">
          <mxGeometry relative="1" as="geometry">
            <mxPoint x="353" y="618" as="sourcePoint" />
          </mxGeometry>
        </mxCell>
        <mxCell id="rcEUrJyDU5K6wRp0mU6U-17" style="rounded=0;orthogonalLoop=1;jettySize=auto;html=1;dashed=1;" edge="1" parent="rcEUrJyDU5K6wRp0mU6U-1" target="rcEUrJyDU5K6wRp0mU6U-9">
          <mxGeometry relative="1" as="geometry">
            <mxPoint x="353" y="612" as="sourcePoint" />
          </mxGeometry>
        </mxCell>
        <mxCell id="rcEUrJyDU5K6wRp0mU6U-18" style="rounded=0;orthogonalLoop=1;jettySize=auto;html=1;dashed=1;" edge="1" parent="rcEUrJyDU5K6wRp0mU6U-1" target="rcEUrJyDU5K6wRp0mU6U-7">
          <mxGeometry relative="1" as="geometry">
            <mxPoint x="249" y="787" as="sourcePoint" />
          </mxGeometry>
        </mxCell>
        <mxCell id="rcEUrJyDU5K6wRp0mU6U-19" style="rounded=0;orthogonalLoop=1;jettySize=auto;html=1;dashed=1;" edge="1" parent="rcEUrJyDU5K6wRp0mU6U-1" target="rcEUrJyDU5K6wRp0mU6U-8">
          <mxGeometry relative="1" as="geometry">
            <mxPoint x="725" y="735" as="sourcePoint" />
          </mxGeometry>
        </mxCell>
        <mxCell id="rcEUrJyDU5K6wRp0mU6U-20" style="rounded=0;orthogonalLoop=1;jettySize=auto;html=1;dashed=1;" edge="1" parent="rcEUrJyDU5K6wRp0mU6U-1" target="rcEUrJyDU5K6wRp0mU6U-7">
          <mxGeometry relative="1" as="geometry">
            <mxPoint x="346" y="875" as="sourcePoint" />
          </mxGeometry>
        </mxCell>
      </root>
    </mxGraphModel>
  </diagram>
  <diagram name="Transitions" id="YfZpdeeItK-vyviBFFsD">
    <mxGraphModel dx="1094" dy="701" grid="1" gridSize="10" guides="1" tooltips="1" connect="1" arrows="1" fold="1" page="1" pageScale="1" pageWidth="850" pageHeight="1100" math="1" shadow="0">
      <root>
        <mxCell id="6ojkXQFBbZGZngs1oIKc-0" />
        <mxCell id="6ojkXQFBbZGZngs1oIKc-1" parent="6ojkXQFBbZGZngs1oIKc-0" />
        <mxCell id="6ojkXQFBbZGZngs1oIKc-2" value="`S1`" style="whiteSpace=wrap;html=1;fillColor=#dae8fc;strokeColor=#6c8ebf;" vertex="1" parent="6ojkXQFBbZGZngs1oIKc-1">
          <mxGeometry x="248" y="164" width="40" height="40" as="geometry" />
        </mxCell>
        <mxCell id="6ojkXQFBbZGZngs1oIKc-3" value="`E1`" style="whiteSpace=wrap;html=1;fillColor=#fff2cc;strokeColor=#d6b656;" vertex="1" parent="6ojkXQFBbZGZngs1oIKc-1">
          <mxGeometry x="447" y="164" width="40" height="40" as="geometry" />
        </mxCell>
        <mxCell id="6ojkXQFBbZGZngs1oIKc-4" value="`In1`" style="whiteSpace=wrap;html=1;fillColor=#f8cecc;strokeColor=#b85450;" vertex="1" parent="6ojkXQFBbZGZngs1oIKc-1">
          <mxGeometry x="630" y="234" width="40" height="40" as="geometry" />
        </mxCell>
        <mxCell id="6ojkXQFBbZGZngs1oIKc-5" value="`It1`" style="whiteSpace=wrap;html=1;fillColor=#ffe6cc;strokeColor=#d79b00;" vertex="1" parent="6ojkXQFBbZGZngs1oIKc-1">
          <mxGeometry x="689" y="113" width="40" height="40" as="geometry" />
        </mxCell>
        <mxCell id="6ojkXQFBbZGZngs1oIKc-6" value="`Tr1`" style="whiteSpace=wrap;html=1;fillColor=#d5e8d4;strokeColor=#82b366;" vertex="1" parent="6ojkXQFBbZGZngs1oIKc-1">
          <mxGeometry x="813" y="113" width="40" height="40" as="geometry" />
        </mxCell>
        <mxCell id="6ojkXQFBbZGZngs1oIKc-7" value="`R1`" style="whiteSpace=wrap;html=1;fillColor=#e1d5e7;strokeColor=#9673a6;" vertex="1" parent="6ojkXQFBbZGZngs1oIKc-1">
          <mxGeometry x="958" y="164" width="40" height="40" as="geometry" />
        </mxCell>
        <mxCell id="6ojkXQFBbZGZngs1oIKc-8" value="`S2`" style="whiteSpace=wrap;html=1;fillColor=#dae8fc;strokeColor=#6c8ebf;" vertex="1" parent="6ojkXQFBbZGZngs1oIKc-1">
          <mxGeometry x="249" y="439" width="40" height="40" as="geometry" />
        </mxCell>
        <mxCell id="6ojkXQFBbZGZngs1oIKc-9" value="`E2`" style="whiteSpace=wrap;html=1;fillColor=#fff2cc;strokeColor=#d6b656;" vertex="1" parent="6ojkXQFBbZGZngs1oIKc-1">
          <mxGeometry x="447" y="439" width="40" height="40" as="geometry" />
        </mxCell>
        <mxCell id="6ojkXQFBbZGZngs1oIKc-10" value="`In2`" style="whiteSpace=wrap;html=1;fillColor=#f8cecc;strokeColor=#b85450;" vertex="1" parent="6ojkXQFBbZGZngs1oIKc-1">
          <mxGeometry x="630" y="509" width="40" height="40" as="geometry" />
        </mxCell>
        <mxCell id="6ojkXQFBbZGZngs1oIKc-11" value="`It2`" style="whiteSpace=wrap;html=1;fillColor=#ffe6cc;strokeColor=#d79b00;" vertex="1" parent="6ojkXQFBbZGZngs1oIKc-1">
          <mxGeometry x="692" y="384" width="40" height="40" as="geometry" />
        </mxCell>
        <mxCell id="6ojkXQFBbZGZngs1oIKc-12" value="`Tr2`" style="whiteSpace=wrap;html=1;fillColor=#d5e8d4;strokeColor=#82b366;" vertex="1" parent="6ojkXQFBbZGZngs1oIKc-1">
          <mxGeometry x="813" y="384" width="40" height="40" as="geometry" />
        </mxCell>
        <mxCell id="6ojkXQFBbZGZngs1oIKc-13" value="`VA2`" style="whiteSpace=wrap;html=1;fillColor=#bac8d3;strokeColor=#23445d;" vertex="1" parent="6ojkXQFBbZGZngs1oIKc-1">
          <mxGeometry x="306" y="563" width="40" height="40" as="geometry" />
        </mxCell>
        <mxCell id="6ojkXQFBbZGZngs1oIKc-14" value="`R2`" style="whiteSpace=wrap;html=1;fillColor=#e1d5e7;strokeColor=#9673a6;" vertex="1" parent="6ojkXQFBbZGZngs1oIKc-1">
          <mxGeometry x="958" y="439" width="40" height="40" as="geometry" />
        </mxCell>
        <mxCell id="6ojkXQFBbZGZngs1oIKc-15" value="`S3`" style="whiteSpace=wrap;html=1;fillColor=#dae8fc;strokeColor=#6c8ebf;" vertex="1" parent="6ojkXQFBbZGZngs1oIKc-1">
          <mxGeometry x="249" y="708" width="40" height="40" as="geometry" />
        </mxCell>
        <mxCell id="6ojkXQFBbZGZngs1oIKc-16" value="`E3`" style="whiteSpace=wrap;html=1;fillColor=#fff2cc;strokeColor=#d6b656;" vertex="1" parent="6ojkXQFBbZGZngs1oIKc-1">
          <mxGeometry x="447" y="708" width="40" height="40" as="geometry" />
        </mxCell>
        <mxCell id="6ojkXQFBbZGZngs1oIKc-17" value="`In3`" style="whiteSpace=wrap;html=1;fillColor=#f8cecc;strokeColor=#b85450;" vertex="1" parent="6ojkXQFBbZGZngs1oIKc-1">
          <mxGeometry x="630" y="778" width="40" height="40" as="geometry" />
        </mxCell>
        <mxCell id="6ojkXQFBbZGZngs1oIKc-18" value="`It3`" style="whiteSpace=wrap;html=1;fillColor=#ffe6cc;strokeColor=#d79b00;" vertex="1" parent="6ojkXQFBbZGZngs1oIKc-1">
          <mxGeometry x="694" y="655" width="40" height="40" as="geometry" />
        </mxCell>
        <mxCell id="6ojkXQFBbZGZngs1oIKc-19" value="`Tr3`" style="whiteSpace=wrap;html=1;fillColor=#d5e8d4;strokeColor=#82b366;" vertex="1" parent="6ojkXQFBbZGZngs1oIKc-1">
          <mxGeometry x="813" y="655" width="40" height="40" as="geometry" />
        </mxCell>
        <mxCell id="6ojkXQFBbZGZngs1oIKc-20" value="`VA3`" style="whiteSpace=wrap;html=1;fillColor=#bac8d3;strokeColor=#23445d;" vertex="1" parent="6ojkXQFBbZGZngs1oIKc-1">
          <mxGeometry x="306" y="810" width="40" height="40" as="geometry" />
        </mxCell>
        <mxCell id="6ojkXQFBbZGZngs1oIKc-21" value="`VB3`" style="whiteSpace=wrap;html=1;fillColor=#d0cee2;strokeColor=#56517e;" vertex="1" parent="6ojkXQFBbZGZngs1oIKc-1">
          <mxGeometry x="407" y="603" width="40" height="40" as="geometry" />
        </mxCell>
        <mxCell id="6ojkXQFBbZGZngs1oIKc-22" value="`R3`" style="whiteSpace=wrap;html=1;fillColor=#e1d5e7;strokeColor=#9673a6;" vertex="1" parent="6ojkXQFBbZGZngs1oIKc-1">
          <mxGeometry x="958" y="708" width="40" height="40" as="geometry" />
        </mxCell>
        <mxCell id="6ojkXQFBbZGZngs1oIKc-23" value="lambda[1]" style="rounded=0;orthogonalLoop=1;jettySize=auto;html=1;" edge="1" parent="6ojkXQFBbZGZngs1oIKc-1" source="6ojkXQFBbZGZngs1oIKc-2" target="6ojkXQFBbZGZngs1oIKc-3">
          <mxGeometry relative="1" as="geometry" />
        </mxCell>
        <mxCell id="6ojkXQFBbZGZngs1oIKc-24" value="(1-cov1)*a" style="rounded=0;orthogonalLoop=1;jettySize=auto;html=1;" edge="1" parent="6ojkXQFBbZGZngs1oIKc-1" source="6ojkXQFBbZGZngs1oIKc-2" target="6ojkXQFBbZGZngs1oIKc-8">
          <mxGeometry relative="1" as="geometry" />
        </mxCell>
        <mxCell id="6ojkXQFBbZGZngs1oIKc-25" value="cov1*a" style="rounded=0;orthogonalLoop=1;jettySize=auto;html=1;" edge="1" parent="6ojkXQFBbZGZngs1oIKc-1" source="6ojkXQFBbZGZngs1oIKc-2" target="6ojkXQFBbZGZngs1oIKc-13">
          <mxGeometry x="-0.1804" y="8" relative="1" as="geometry">
            <mxPoint as="offset" />
          </mxGeometry>
        </mxCell>
        <mxCell id="6ojkXQFBbZGZngs1oIKc-26" value="(1-pt)*rs" style="rounded=0;orthogonalLoop=1;jettySize=auto;html=1;" edge="1" parent="6ojkXQFBbZGZngs1oIKc-1" source="6ojkXQFBbZGZngs1oIKc-3" target="6ojkXQFBbZGZngs1oIKc-4">
          <mxGeometry relative="1" as="geometry" />
        </mxCell>
        <mxCell id="6ojkXQFBbZGZngs1oIKc-27" value="pt*rs" style="rounded=0;orthogonalLoop=1;jettySize=auto;html=1;" edge="1" parent="6ojkXQFBbZGZngs1oIKc-1" source="6ojkXQFBbZGZngs1oIKc-3" target="6ojkXQFBbZGZngs1oIKc-5">
          <mxGeometry relative="1" as="geometry" />
        </mxCell>
        <mxCell id="6ojkXQFBbZGZngs1oIKc-28" value="a" style="rounded=0;orthogonalLoop=1;jettySize=auto;html=1;" edge="1" parent="6ojkXQFBbZGZngs1oIKc-1" source="6ojkXQFBbZGZngs1oIKc-3" target="6ojkXQFBbZGZngs1oIKc-9">
          <mxGeometry relative="1" as="geometry" />
        </mxCell>
        <mxCell id="6ojkXQFBbZGZngs1oIKc-29" value="rr" style="rounded=0;orthogonalLoop=1;jettySize=auto;html=1;" edge="1" parent="6ojkXQFBbZGZngs1oIKc-1" source="6ojkXQFBbZGZngs1oIKc-4" target="6ojkXQFBbZGZngs1oIKc-7">
          <mxGeometry relative="1" as="geometry" />
        </mxCell>
        <mxCell id="6ojkXQFBbZGZngs1oIKc-30" value="a" style="rounded=0;orthogonalLoop=1;jettySize=auto;html=1;" edge="1" parent="6ojkXQFBbZGZngs1oIKc-1" source="6ojkXQFBbZGZngs1oIKc-4" target="6ojkXQFBbZGZngs1oIKc-10">
          <mxGeometry relative="1" as="geometry" />
        </mxCell>
        <mxCell id="6ojkXQFBbZGZngs1oIKc-31" value="rt" style="rounded=0;orthogonalLoop=1;jettySize=auto;html=1;" edge="1" parent="6ojkXQFBbZGZngs1oIKc-1" source="6ojkXQFBbZGZngs1oIKc-5" target="6ojkXQFBbZGZngs1oIKc-6">
          <mxGeometry relative="1" as="geometry" />
        </mxCell>
        <mxCell id="6ojkXQFBbZGZngs1oIKc-32" value="a" style="rounded=0;orthogonalLoop=1;jettySize=auto;html=1;" edge="1" parent="6ojkXQFBbZGZngs1oIKc-1" source="6ojkXQFBbZGZngs1oIKc-5" target="6ojkXQFBbZGZngs1oIKc-11">
          <mxGeometry relative="1" as="geometry" />
        </mxCell>
        <mxCell id="6ojkXQFBbZGZngs1oIKc-33" value="rtr" style="rounded=0;orthogonalLoop=1;jettySize=auto;html=1;" edge="1" parent="6ojkXQFBbZGZngs1oIKc-1" source="6ojkXQFBbZGZngs1oIKc-6" target="6ojkXQFBbZGZngs1oIKc-7">
          <mxGeometry relative="1" as="geometry" />
        </mxCell>
        <mxCell id="6ojkXQFBbZGZngs1oIKc-34" value="a" style="rounded=0;orthogonalLoop=1;jettySize=auto;html=1;" edge="1" parent="6ojkXQFBbZGZngs1oIKc-1" source="6ojkXQFBbZGZngs1oIKc-6" target="6ojkXQFBbZGZngs1oIKc-12">
          <mxGeometry relative="1" as="geometry" />
        </mxCell>
        <mxCell id="6ojkXQFBbZGZngs1oIKc-36" value="(1-cov1)*a" style="rounded=0;orthogonalLoop=1;jettySize=auto;html=1;" edge="1" parent="6ojkXQFBbZGZngs1oIKc-1" source="6ojkXQFBbZGZngs1oIKc-7" target="6ojkXQFBbZGZngs1oIKc-14">
          <mxGeometry relative="1" as="geometry" />
        </mxCell>
        <mxCell id="6ojkXQFBbZGZngs1oIKc-37" value="lambda[2]" style="rounded=0;orthogonalLoop=1;jettySize=auto;html=1;" edge="1" parent="6ojkXQFBbZGZngs1oIKc-1" source="6ojkXQFBbZGZngs1oIKc-8" target="6ojkXQFBbZGZngs1oIKc-9">
          <mxGeometry relative="1" as="geometry" />
        </mxCell>
        <mxCell id="6ojkXQFBbZGZngs1oIKc-38" value="a" style="rounded=0;orthogonalLoop=1;jettySize=auto;html=1;" edge="1" parent="6ojkXQFBbZGZngs1oIKc-1" source="6ojkXQFBbZGZngs1oIKc-8" target="6ojkXQFBbZGZngs1oIKc-15">
          <mxGeometry relative="1" as="geometry" />
        </mxCell>
        <mxCell id="6ojkXQFBbZGZngs1oIKc-39" value="(1-pt)*rs" style="rounded=0;orthogonalLoop=1;jettySize=auto;html=1;" edge="1" parent="6ojkXQFBbZGZngs1oIKc-1" source="6ojkXQFBbZGZngs1oIKc-9" target="6ojkXQFBbZGZngs1oIKc-10">
          <mxGeometry relative="1" as="geometry" />
        </mxCell>
        <mxCell id="6ojkXQFBbZGZngs1oIKc-40" value="pt*rs" style="rounded=0;orthogonalLoop=1;jettySize=auto;html=1;" edge="1" parent="6ojkXQFBbZGZngs1oIKc-1" source="6ojkXQFBbZGZngs1oIKc-9" target="6ojkXQFBbZGZngs1oIKc-11">
          <mxGeometry relative="1" as="geometry" />
        </mxCell>
        <mxCell id="6ojkXQFBbZGZngs1oIKc-41" value="a" style="rounded=0;orthogonalLoop=1;jettySize=auto;html=1;" edge="1" parent="6ojkXQFBbZGZngs1oIKc-1" source="6ojkXQFBbZGZngs1oIKc-9" target="6ojkXQFBbZGZngs1oIKc-16">
          <mxGeometry relative="1" as="geometry" />
        </mxCell>
        <mxCell id="6ojkXQFBbZGZngs1oIKc-42" value="rr" style="rounded=0;orthogonalLoop=1;jettySize=auto;html=1;" edge="1" parent="6ojkXQFBbZGZngs1oIKc-1" source="6ojkXQFBbZGZngs1oIKc-10" target="6ojkXQFBbZGZngs1oIKc-14">
          <mxGeometry relative="1" as="geometry" />
        </mxCell>
        <mxCell id="6ojkXQFBbZGZngs1oIKc-43" value="a" style="rounded=0;orthogonalLoop=1;jettySize=auto;html=1;" edge="1" parent="6ojkXQFBbZGZngs1oIKc-1" source="6ojkXQFBbZGZngs1oIKc-10" target="6ojkXQFBbZGZngs1oIKc-17">
          <mxGeometry relative="1" as="geometry" />
        </mxCell>
        <mxCell id="6ojkXQFBbZGZngs1oIKc-44" value="rt" style="rounded=0;orthogonalLoop=1;jettySize=auto;html=1;" edge="1" parent="6ojkXQFBbZGZngs1oIKc-1" source="6ojkXQFBbZGZngs1oIKc-11" target="6ojkXQFBbZGZngs1oIKc-12">
          <mxGeometry relative="1" as="geometry" />
        </mxCell>
        <mxCell id="6ojkXQFBbZGZngs1oIKc-45" style="rounded=0;orthogonalLoop=1;jettySize=auto;html=1;" edge="1" parent="6ojkXQFBbZGZngs1oIKc-1" source="6ojkXQFBbZGZngs1oIKc-11" target="6ojkXQFBbZGZngs1oIKc-18">
          <mxGeometry relative="1" as="geometry" />
        </mxCell>
        <mxCell id="6ojkXQFBbZGZngs1oIKc-46" value="rtr" style="rounded=0;orthogonalLoop=1;jettySize=auto;html=1;" edge="1" parent="6ojkXQFBbZGZngs1oIKc-1" source="6ojkXQFBbZGZngs1oIKc-12" target="6ojkXQFBbZGZngs1oIKc-14">
          <mxGeometry relative="1" as="geometry" />
        </mxCell>
        <mxCell id="6ojkXQFBbZGZngs1oIKc-47" value="a" style="rounded=0;orthogonalLoop=1;jettySize=auto;html=1;" edge="1" parent="6ojkXQFBbZGZngs1oIKc-1" source="6ojkXQFBbZGZngs1oIKc-12" target="6ojkXQFBbZGZngs1oIKc-19">
          <mxGeometry relative="1" as="geometry" />
        </mxCell>
        <mxCell id="6ojkXQFBbZGZngs1oIKc-48" style="rounded=0;orthogonalLoop=1;jettySize=auto;html=1;" edge="1" parent="6ojkXQFBbZGZngs1oIKc-1" source="6ojkXQFBbZGZngs1oIKc-13" target="6ojkXQFBbZGZngs1oIKc-9">
          <mxGeometry relative="1" as="geometry" />
        </mxCell>
        <mxCell id="lgPCjHqJpSJofYIw365i-2" value="(1-ve1)*lambda[2]" style="edgeLabel;html=1;align=center;verticalAlign=middle;resizable=0;points=[];" vertex="1" connectable="0" parent="6ojkXQFBbZGZngs1oIKc-48">
          <mxGeometry x="0.232" y="-4" relative="1" as="geometry">
            <mxPoint as="offset" />
          </mxGeometry>
        </mxCell>
        <mxCell id="6ojkXQFBbZGZngs1oIKc-49" value="(1-cov2)*a" style="rounded=0;orthogonalLoop=1;jettySize=auto;html=1;" edge="1" parent="6ojkXQFBbZGZngs1oIKc-1" source="6ojkXQFBbZGZngs1oIKc-13" target="6ojkXQFBbZGZngs1oIKc-20">
          <mxGeometry x="0.5169" y="4" relative="1" as="geometry">
            <mxPoint as="offset" />
          </mxGeometry>
        </mxCell>
        <mxCell id="6ojkXQFBbZGZngs1oIKc-50" value="cov2*a" style="rounded=0;orthogonalLoop=1;jettySize=auto;html=1;" edge="1" parent="6ojkXQFBbZGZngs1oIKc-1" source="6ojkXQFBbZGZngs1oIKc-13" target="6ojkXQFBbZGZngs1oIKc-21">
          <mxGeometry relative="1" as="geometry" />
        </mxCell>
        <mxCell id="6ojkXQFBbZGZngs1oIKc-51" style="rounded=0;orthogonalLoop=1;jettySize=auto;html=1;" edge="1" parent="6ojkXQFBbZGZngs1oIKc-1" source="6ojkXQFBbZGZngs1oIKc-14" target="6ojkXQFBbZGZngs1oIKc-22">
          <mxGeometry relative="1" as="geometry" />
        </mxCell>
        <mxCell id="6ojkXQFBbZGZngs1oIKc-52" value="lambda[3]" style="rounded=0;orthogonalLoop=1;jettySize=auto;html=1;" edge="1" parent="6ojkXQFBbZGZngs1oIKc-1" source="6ojkXQFBbZGZngs1oIKc-15" target="6ojkXQFBbZGZngs1oIKc-16">
          <mxGeometry relative="1" as="geometry" />
        </mxCell>
        <mxCell id="6ojkXQFBbZGZngs1oIKc-53" value="(1-pt)*rs" style="rounded=0;orthogonalLoop=1;jettySize=auto;html=1;" edge="1" parent="6ojkXQFBbZGZngs1oIKc-1" source="6ojkXQFBbZGZngs1oIKc-16" target="6ojkXQFBbZGZngs1oIKc-17">
          <mxGeometry relative="1" as="geometry" />
        </mxCell>
        <mxCell id="6ojkXQFBbZGZngs1oIKc-54" value="pt*rs" style="rounded=0;orthogonalLoop=1;jettySize=auto;html=1;" edge="1" parent="6ojkXQFBbZGZngs1oIKc-1" source="6ojkXQFBbZGZngs1oIKc-16" target="6ojkXQFBbZGZngs1oIKc-18">
          <mxGeometry relative="1" as="geometry" />
        </mxCell>
        <mxCell id="6ojkXQFBbZGZngs1oIKc-55" value="rr" style="rounded=0;orthogonalLoop=1;jettySize=auto;html=1;" edge="1" parent="6ojkXQFBbZGZngs1oIKc-1" source="6ojkXQFBbZGZngs1oIKc-17" target="6ojkXQFBbZGZngs1oIKc-22">
          <mxGeometry relative="1" as="geometry" />
        </mxCell>
        <mxCell id="6ojkXQFBbZGZngs1oIKc-56" value="rt" style="rounded=0;orthogonalLoop=1;jettySize=auto;html=1;" edge="1" parent="6ojkXQFBbZGZngs1oIKc-1" source="6ojkXQFBbZGZngs1oIKc-18" target="6ojkXQFBbZGZngs1oIKc-19">
          <mxGeometry relative="1" as="geometry" />
        </mxCell>
        <mxCell id="6ojkXQFBbZGZngs1oIKc-57" value="rtr" style="rounded=0;orthogonalLoop=1;jettySize=auto;html=1;" edge="1" parent="6ojkXQFBbZGZngs1oIKc-1" source="6ojkXQFBbZGZngs1oIKc-19" target="6ojkXQFBbZGZngs1oIKc-22">
          <mxGeometry relative="1" as="geometry" />
        </mxCell>
        <mxCell id="6ojkXQFBbZGZngs1oIKc-58" value="(1-ve1)*lambda[3]" style="rounded=0;orthogonalLoop=1;jettySize=auto;html=1;" edge="1" parent="6ojkXQFBbZGZngs1oIKc-1" source="6ojkXQFBbZGZngs1oIKc-20" target="6ojkXQFBbZGZngs1oIKc-16">
          <mxGeometry relative="1" as="geometry" />
        </mxCell>
        <mxCell id="6ojkXQFBbZGZngs1oIKc-35" value="cov1*a" style="rounded=0;orthogonalLoop=1;jettySize=auto;html=1;jumpStyle=arc;" edge="1" parent="6ojkXQFBbZGZngs1oIKc-1" source="6ojkXQFBbZGZngs1oIKc-7" target="6ojkXQFBbZGZngs1oIKc-13">
          <mxGeometry x="-0.6343" relative="1" as="geometry">
            <Array as="points">
              <mxPoint x="1040" y="184" />
              <mxPoint x="1040" y="580" />
            </Array>
            <mxPoint as="offset" />
          </mxGeometry>
        </mxCell>
        <mxCell id="6ojkXQFBbZGZngs1oIKc-59" value="Counters" parent="6ojkXQFBbZGZngs1oIKc-0" />
        <mxCell id="6ojkXQFBbZGZngs1oIKc-60" value="`CInc1`" style="whiteSpace=wrap;html=1;fillColor=#f5f5f5;fontColor=#333333;strokeColor=#666666;" vertex="1" parent="6ojkXQFBbZGZngs1oIKc-59">
          <mxGeometry x="350" y="120" width="40" height="40" as="geometry" />
        </mxCell>
        <mxCell id="6ojkXQFBbZGZngs1oIKc-61" value="`CTr1`" style="whiteSpace=wrap;html=1;fillColor=#f5f5f5;fontColor=#333333;strokeColor=#666666;" vertex="1" parent="6ojkXQFBbZGZngs1oIKc-59">
          <mxGeometry x="750" y="174" width="40" height="40" as="geometry" />
        </mxCell>
        <mxCell id="6ojkXQFBbZGZngs1oIKc-62" value="`CInc2`" style="whiteSpace=wrap;html=1;fillColor=#f5f5f5;fontColor=#333333;strokeColor=#666666;" vertex="1" parent="6ojkXQFBbZGZngs1oIKc-59">
          <mxGeometry x="350" y="390" width="40" height="40" as="geometry" />
        </mxCell>
        <mxCell id="6ojkXQFBbZGZngs1oIKc-63" value="`CTr2`" style="whiteSpace=wrap;html=1;fillColor=#f5f5f5;fontColor=#333333;strokeColor=#666666;" vertex="1" parent="6ojkXQFBbZGZngs1oIKc-59">
          <mxGeometry x="750" y="440" width="40" height="40" as="geometry" />
        </mxCell>
        <mxCell id="6ojkXQFBbZGZngs1oIKc-64" value="`CVax2`" style="whiteSpace=wrap;html=1;fillColor=#f5f5f5;fontColor=#333333;strokeColor=#666666;" vertex="1" parent="6ojkXQFBbZGZngs1oIKc-59">
          <mxGeometry x="500" y="330" width="40" height="40" as="geometry" />
        </mxCell>
        <mxCell id="6ojkXQFBbZGZngs1oIKc-65" value="`CInc3`" style="whiteSpace=wrap;html=1;fillColor=#f5f5f5;fontColor=#333333;strokeColor=#666666;" vertex="1" parent="6ojkXQFBbZGZngs1oIKc-59">
          <mxGeometry x="360" y="660" width="40" height="40" as="geometry" />
        </mxCell>
        <mxCell id="6ojkXQFBbZGZngs1oIKc-66" value="`CTr3`" style="whiteSpace=wrap;html=1;fillColor=#f5f5f5;fontColor=#333333;strokeColor=#666666;" vertex="1" parent="6ojkXQFBbZGZngs1oIKc-59">
          <mxGeometry x="750" y="710" width="40" height="40" as="geometry" />
        </mxCell>
        <mxCell id="6ojkXQFBbZGZngs1oIKc-67" value="`CVax3`" style="whiteSpace=wrap;html=1;fillColor=#f5f5f5;fontColor=#333333;strokeColor=#666666;" vertex="1" parent="6ojkXQFBbZGZngs1oIKc-59">
          <mxGeometry x="250" y="770" width="40" height="40" as="geometry" />
        </mxCell>
        <mxCell id="6ojkXQFBbZGZngs1oIKc-68" style="rounded=0;orthogonalLoop=1;jettySize=auto;html=1;dashed=1;" edge="1" parent="6ojkXQFBbZGZngs1oIKc-59" target="6ojkXQFBbZGZngs1oIKc-60">
          <mxGeometry relative="1" as="geometry">
            <mxPoint x="370" y="184" as="sourcePoint" />
          </mxGeometry>
        </mxCell>
        <mxCell id="6ojkXQFBbZGZngs1oIKc-69" style="rounded=0;orthogonalLoop=1;jettySize=auto;html=1;dashed=1;" edge="1" parent="6ojkXQFBbZGZngs1oIKc-59" target="6ojkXQFBbZGZngs1oIKc-64">
          <mxGeometry relative="1" as="geometry">
            <mxPoint x="320" y="350" as="sourcePoint" />
          </mxGeometry>
        </mxCell>
        <mxCell id="6ojkXQFBbZGZngs1oIKc-70" style="rounded=0;orthogonalLoop=1;jettySize=auto;html=1;dashed=1;" edge="1" parent="6ojkXQFBbZGZngs1oIKc-59" target="6ojkXQFBbZGZngs1oIKc-61">
          <mxGeometry relative="1" as="geometry">
            <mxPoint x="770" y="140" as="sourcePoint" />
          </mxGeometry>
        </mxCell>
        <mxCell id="6ojkXQFBbZGZngs1oIKc-71" style="rounded=0;orthogonalLoop=1;jettySize=auto;html=1;dashed=1;" edge="1" parent="6ojkXQFBbZGZngs1oIKc-59" target="6ojkXQFBbZGZngs1oIKc-64">
          <mxGeometry relative="1" as="geometry">
            <mxPoint x="520" y="580" as="sourcePoint" />
          </mxGeometry>
        </mxCell>
        <mxCell id="6ojkXQFBbZGZngs1oIKc-72" style="rounded=0;orthogonalLoop=1;jettySize=auto;html=1;dashed=1;" edge="1" parent="6ojkXQFBbZGZngs1oIKc-59" target="6ojkXQFBbZGZngs1oIKc-62">
          <mxGeometry relative="1" as="geometry">
            <mxPoint x="370" y="450" as="sourcePoint" />
          </mxGeometry>
        </mxCell>
        <mxCell id="6ojkXQFBbZGZngs1oIKc-73" style="rounded=0;orthogonalLoop=1;jettySize=auto;html=1;dashed=1;" edge="1" parent="6ojkXQFBbZGZngs1oIKc-59" target="6ojkXQFBbZGZngs1oIKc-63">
          <mxGeometry relative="1" as="geometry">
            <mxPoint x="770" y="410" as="sourcePoint" />
          </mxGeometry>
        </mxCell>
        <mxCell id="6ojkXQFBbZGZngs1oIKc-74" style="rounded=0;orthogonalLoop=1;jettySize=auto;html=1;dashed=1;" edge="1" parent="6ojkXQFBbZGZngs1oIKc-59" target="6ojkXQFBbZGZngs1oIKc-62">
          <mxGeometry relative="1" as="geometry">
            <mxPoint x="410" y="500" as="sourcePoint" />
            <Array as="points">
              <mxPoint x="410" y="420" />
            </Array>
          </mxGeometry>
        </mxCell>
        <mxCell id="6ojkXQFBbZGZngs1oIKc-75" style="rounded=0;orthogonalLoop=1;jettySize=auto;html=1;dashed=1;" edge="1" parent="6ojkXQFBbZGZngs1oIKc-59" target="6ojkXQFBbZGZngs1oIKc-67">
          <mxGeometry relative="1" as="geometry">
            <mxPoint x="320" y="790" as="sourcePoint" />
          </mxGeometry>
        </mxCell>
        <mxCell id="6ojkXQFBbZGZngs1oIKc-76" style="rounded=0;orthogonalLoop=1;jettySize=auto;html=1;dashed=1;" edge="1" parent="6ojkXQFBbZGZngs1oIKc-59" target="6ojkXQFBbZGZngs1oIKc-65">
          <mxGeometry relative="1" as="geometry">
            <mxPoint x="420" y="760" as="sourcePoint" />
            <Array as="points">
              <mxPoint x="420" y="680" />
            </Array>
          </mxGeometry>
        </mxCell>
        <mxCell id="6ojkXQFBbZGZngs1oIKc-77" style="rounded=0;orthogonalLoop=1;jettySize=auto;html=1;dashed=1;" edge="1" parent="6ojkXQFBbZGZngs1oIKc-59" target="6ojkXQFBbZGZngs1oIKc-66">
          <mxGeometry relative="1" as="geometry">
            <mxPoint x="770" y="680" as="sourcePoint" />
          </mxGeometry>
        </mxCell>
        <mxCell id="6ojkXQFBbZGZngs1oIKc-78" style="rounded=0;orthogonalLoop=1;jettySize=auto;html=1;dashed=1;" edge="1" parent="6ojkXQFBbZGZngs1oIKc-59" target="6ojkXQFBbZGZngs1oIKc-65">
          <mxGeometry relative="1" as="geometry">
            <mxPoint x="380" y="720" as="sourcePoint" />
          </mxGeometry>
        </mxCell>
      </root>
    </mxGraphModel>
  </diagram>
</mxfile>
